# xmcd
#
# Track frame offsets:
#  182
#  17035
#  36225
#  48545
#  60882
#  74750
#  87130
#  99792
#  113480
#  134430
#
# Disc length: 2021 seconds
#
# Revision: 0
# Processed by: cddbd v1.5.2PL0 Copyright (c) Steve Scherf et al.
# Submitted via: Collectorz.com_Music_Collector 7.0
#
DISCID=7c07e30a
DTITLE=Kenny Rogers - X-mas
DYEAR=1900
DGENRE=Country
TTITLE0=Christmas Everyday
TTITLE1=Kentucky Homemade Christmas
TTITLE2=Carol of the Bells
TTITLE3=Kids
TTITLE4=Sweet Little Jesus Boy
TTITLE5=Christmas Is My Favorite Time of the Year
TTITLE6=White Christmas
TTITLE7=My Favorite Things
TTITLE8=O Holy Night
TTITLE9=When a Child Is Born
EXTD=
EXTT0=
EXTT1=
EXTT2=
EXTT3=
EXTT4=
EXTT5=
EXTT6=
EXTT7=
EXTT8=
EXTT9=
PLAYORDER=
